<svg xmlns="http://www.w3.org/2000/svg" version="1.1" xmlns:xlink="http://www.w3.org/1999/xlink" xmlns:svgjs="http://svgjs.dev/svgjs" width="1440" height="560" preserveAspectRatio="none" viewBox="0 0 1440 560"><g mask="url(&quot;#SvgjsMask1036&quot;)" fill="none"><rect width="1440" height="560" x="0" y="0" fill="rgba(42, 41, 42, 1)"></rect><path d="M0,491.949C117.586,484.954,234.106,578.104,343.583,534.626C456.626,489.732,550.948,382.115,576.171,263.128C600.661,147.598,508.787,44.222,471.276,-67.759C441.435,-156.841,426.205,-246.967,378.24,-327.747C321.817,-422.771,269.677,-530.287,169.25,-576.413C64.297,-624.618,-57.797,-606.188,-170.2,-579.647C-287.289,-551.999,-422.664,-523.535,-486.518,-421.57C-549.945,-320.287,-492.091,-189.798,-489.154,-70.33C-486.763,26.929,-488.348,119.333,-470.868,215.038C-447.905,340.759,-481.06,512.342,-370.897,577.127C-259.293,642.76,-129.245,499.637,0,491.949" fill="#202020"></path><path d="M1440 1045.257C1529.963 1047.8229999999999 1568.767 926.6890000000001 1642.371 874.896 1711.617 826.1700000000001 1810.128 820.687 1858.1970000000001 750.984 1908.857 677.524 1915.422 581.746 1905.7069999999999 493.041 1895.782 402.411 1860.734 316.028 1802.848 245.58999999999997 1744.003 173.985 1667.91 111.582 1577.079 93.15199999999999 1489.098 75.30000000000001 1403.699 118.07400000000001 1318.845 147.38400000000001 1237.926 175.33499999999998 1154.575 199.71300000000002 1093.858 260.066 1030.446 323.097 971.652 403.23199999999997 971.506 492.641 971.364 579.889 1041.343 648.188 1093.1109999999999 718.419 1135.508 775.937 1192.907 814.559 1244.914 863.56 1310.93 925.76 1349.335 1042.671 1440 1045.257" fill="#343234"></path></g><defs><mask id="SvgjsMask1036"><rect width="1440" height="560" fill="#ffffff"></rect></mask></defs></svg>