<svg xmlns="http://www.w3.org/2000/svg" version="1.1" xmlns:xlink="http://www.w3.org/1999/xlink" xmlns:svgjs="http://svgjs.dev/svgjs" width="1440" height="560" preserveAspectRatio="none" viewBox="0 0 1440 560"><g mask="url(&quot;#SvgjsMask1121&quot;)" fill="none"><path d="M 0,398 C 18,333.6 54,68 90,76 C 126,84 144,415.6 180,438 C 216,460.4 234,182.8 270,188 C 306,193.2 324,453 360,464 C 396,475 414,240.6 450,243 C 486,245.4 504,487.4 540,476 C 576,464.6 594,215 630,186 C 666,157 684,320.8 720,331 C 756,341.2 774,205 810,237 C 846,269 864,497.2 900,491 C 936,484.8 954,225.2 990,206 C 1026,186.8 1044,395.6 1080,395 C 1116,394.4 1134,177.6 1170,203 C 1206,228.4 1224,535 1260,522 C 1296,509 1314,148.4 1350,138 C 1386,127.6 1422,403.6 1440,470L1440 560L0 560z" fill="rgba(0, 0, 0, 1)"></path></g><defs><mask id="SvgjsMask1121"><rect width="1440" height="560" fill="#ffffff"></rect></mask></defs></svg>