<svg xmlns="http://www.w3.org/2000/svg" version="1.1" xmlns:xlink="http://www.w3.org/1999/xlink" xmlns:svgjs="http://svgjs.dev/svgjs" width="1500" height="200" preserveAspectRatio="none" viewBox="0 0 1500 200"><g mask="url(&quot;#SvgjsMask1349&quot;)" fill="none"><path d="M 0,9 C 15,41.8 45,155.4 75,173 C 105,190.6 120,104.2 150,97 C 180,89.8 195,149 225,137 C 255,125 270,43 300,37 C 330,31 345,113.4 375,107 C 405,100.6 420,4 450,5 C 480,6 495,102.6 525,112 C 555,121.4 570,42.6 600,52 C 630,61.4 645,151.8 675,159 C 705,166.2 720,90.4 750,88 C 780,85.6 795,161.6 825,147 C 855,132.4 870,23.8 900,15 C 930,6.2 945,100.4 975,103 C 1005,105.6 1020,11 1050,28 C 1080,45 1095,181.8 1125,188 C 1155,194.2 1170,61.8 1200,59 C 1230,56.2 1245,185 1275,174 C 1305,163 1320,2 1350,4 C 1380,6 1395,180.4 1425,184 C 1455,187.6 1485,54.4 1500,22L1500 200L0 200z" fill="rgba(255, 222, 0, 1)"></path></g><defs><mask id="SvgjsMask1349"><rect width="1500" height="200" fill="#ffffff"></rect></mask></defs></svg>