<svg xmlns="http://www.w3.org/2000/svg" version="1.1" xmlns:xlink="http://www.w3.org/1999/xlink" xmlns:svgjs="http://svgjs.dev/svgjs" width="1540" height="200" preserveAspectRatio="none" viewBox="0 0 1540 200"><g mask="url(&quot;#SvgjsMask1002&quot;)" fill="none"><path d="M 0,191 C 15.4,161.2 46.2,59.4 77,42 C 107.8,24.6 123.2,95 154,104 C 184.8,113 200.2,77.6 231,87 C 261.8,96.4 277.2,162 308,151 C 338.8,140 354.2,38 385,32 C 415.8,26 431.2,113.6 462,121 C 492.8,128.4 508.2,59 539,69 C 569.8,79 585.2,172.4 616,171 C 646.8,169.6 662.2,57 693,62 C 723.8,67 739.2,200.6 770,196 C 800.8,191.4 816.2,54.8 847,39 C 877.8,23.2 893.2,116.8 924,117 C 954.8,117.2 970.2,32.8 1001,40 C 1031.8,47.2 1047.2,155.2 1078,153 C 1108.8,150.8 1124.2,31.2 1155,29 C 1185.8,26.8 1201.2,133.2 1232,142 C 1262.8,150.8 1278.2,77.2 1309,73 C 1339.8,68.8 1355.2,120.4 1386,121 C 1416.8,121.6 1432.2,74.2 1463,76 C 1493.8,77.8 1524.6,119.2 1540,130L1540 200L0 200z" fill="rgba(22, 22, 22, 1)"></path></g><defs><mask id="SvgjsMask1002"><rect width="1540" height="200" fill="#ffffff"></rect></mask></defs></svg>